<svg xmlns="http://www.w3.org/2000/svg" xmlns:xlink="http://www.w3.org/1999/xlink" width="154" height="73" viewBox="0 0 154 73">
    <defs>
        <path id="a" d="M.063.036h93.835V43H.063z"/>
        <path id="c" d="M.133.14h19.768v16.851H.133z"/>
        <path id="e" d="M0 .016h24.887v25.962H0z"/>
        <path id="g" d="M.093.136h20.88V17H.093z"/>
    </defs>
    <g fill="none" fill-rule="evenodd">
        <g transform="translate(31)">
            <mask id="b" fill="#fff">
                <use xlink:href="#a"/>
            </mask>
            <path fill="#FEFEFE" d="M58.549 22.798a.313.313 0 0 0-.315.311v1.854c0 .172.141.311.315.311h1.878c.173 0 .314-.14.314-.31v-1.855a.313.313 0 0 0-.314-.31h-1.878zm1.878 4.156h-1.878c-1.112 0-2.017-.893-2.017-1.99v-1.855c0-1.098.905-1.99 2.017-1.99h1.878c1.111 0 2.016.892 2.016 1.99v1.854c0 1.098-.905 1.991-2.016 1.991zm-12.14-7.575a.563.563 0 0 0-.567.56v5.07c0 .308.254.559.567.559h5.134c.313 0 .567-.25.567-.56v-5.07a.563.563 0 0 0-.567-.559h-5.134zm5.134 7.869h-5.134c-1.251 0-2.268-1.004-2.268-2.24v-5.07c0-1.234 1.017-2.238 2.268-2.238h5.134c1.25 0 2.268 1.004 2.268 2.238v5.07c0 1.236-1.017 2.24-2.268 2.24zm12.284-2.297a.85.85 0 0 0-.854.844v4.63a.85.85 0 0 0 .854.843h4.69a.85.85 0 0 0 .853-.844v-4.63a.85.85 0 0 0-.854-.843h-4.689zm4.69 7.997h-4.69c-1.41 0-2.556-1.132-2.556-2.524v-4.63c0-1.39 1.147-2.523 2.556-2.523h4.69c1.408 0 2.555 1.132 2.555 2.524v4.63c0 1.391-1.147 2.523-2.556 2.523zM56.755 29.26a.851.851 0 0 0-.855.845v2.714a.85.85 0 0 0 .855.844h2.748a.85.85 0 0 0 .856-.844v-2.714a.851.851 0 0 0-.856-.845h-2.748zm2.748 6.083h-2.748c-1.41 0-2.557-1.132-2.557-2.524v-2.714c0-1.392 1.147-2.525 2.557-2.525h2.748c1.41 0 2.558 1.133 2.558 2.525v2.714c0 1.392-1.148 2.524-2.558 2.524zm25.665-.21a.16.16 0 0 0-.16.158v1.608a.16.16 0 0 0 .16.159h1.629a.16.16 0 0 0 .16-.159v-1.608a.16.16 0 0 0-.16-.159h-1.63zm1.629 3.605h-1.63c-1.026 0-1.861-.825-1.861-1.839v-1.608c0-1.014.835-1.838 1.862-1.838h1.629c1.026 0 1.861.824 1.861 1.838v1.608c0 1.014-.835 1.839-1.861 1.839zm-13.326-4.226a.65.65 0 0 0-.653.645v2.394a.65.65 0 0 0 .653.646h2.425a.65.65 0 0 0 .654-.646v-2.394a.65.65 0 0 0-.654-.645h-2.425zm2.425 5.365h-2.425c-1.298 0-2.355-1.043-2.355-2.326v-2.394c0-1.282 1.057-2.325 2.355-2.325h2.425c1.299 0 2.356 1.043 2.356 2.325v2.394c0 1.283-1.057 2.326-2.356 2.326zM56.4 37.81a.16.16 0 0 0-.16.158v1.609a.16.16 0 0 0 .16.158h1.629a.16.16 0 0 0 .16-.158v-1.609a.16.16 0 0 0-.16-.158H56.4zm1.629 3.605H56.4c-1.027 0-1.862-.824-1.862-1.838v-1.609c0-1.014.835-1.838 1.862-1.838h1.629c1.026 0 1.862.824 1.862 1.838v1.609c0 1.014-.836 1.838-1.862 1.838zM15.668 16.519a6.876 6.876 0 0 0-4.862 1.988 6.731 6.731 0 0 0-1.987 5.375l.06.71-.698.174c-3.778.949-6.417 4.297-6.417 8.142 0 4.639 3.821 8.412 8.518 8.412h25.129a.639.639 0 0 0 .644-.631V29.167c0-2.22 1.83-4.027 4.078-4.027l2.921-.005c.254 0 .46-.203.46-.452v-5.898c0-1.695 1.027-3.52 3.28-3.52h2.136c.724 0 .872-.246.92-.328.37-.616-.064-2.328-1.03-4.07-1.592-2.866-3.71-5.119-6.297-6.695a16.691 16.691 0 0 0-8.69-2.427l-.225-.029a16.71 16.71 0 0 0-10.73 3.968c-3.064 2.607-5.056 6.211-5.61 10.147l-.112.8-.813-.08a7.038 7.038 0 0 0-.675-.032zM35.41 43H10.282C4.647 43 .062 38.474.062 32.91c0-4.385 2.858-8.23 7.032-9.58a8.395 8.395 0 0 1 2.509-6.01 8.576 8.576 0 0 1 6.065-2.48h.039c.749-4.043 2.882-7.722 6.06-10.428A18.428 18.428 0 0 1 33.706.036l.227.03c3.36.017 6.637.942 9.484 2.677 2.84 1.73 5.16 4.192 6.895 7.317.642 1.156 2.025 4.03 1.003 5.733-.315.526-.984 1.152-2.384 1.152h-2.136c-1.503 0-1.579 1.533-1.579 1.84v5.898c0 1.175-.968 2.132-2.159 2.132l-2.921.005c-1.313 0-2.379 1.053-2.379 2.347V40.69c0 1.274-1.052 2.31-2.345 2.31zm6.406-13.37c-.672 0-1.22.54-1.22 1.204v9.283c0 .664.548 1.204 1.22 1.204h8.957c.673 0 1.22-.54 1.22-1.204v-9.283c0-.664-.547-1.204-1.22-1.204h-8.957zm8.957 13.37h-8.957c-1.61 0-2.92-1.293-2.92-2.883v-9.283c0-1.59 1.31-2.884 2.92-2.884h8.957c1.61 0 2.92 1.294 2.92 2.884v9.283c0 1.59-1.31 2.884-2.92 2.884zm12.963-7.664a.919.919 0 0 0-.923.912v4.16c0 .504.414.913.923.913h4.213c.51 0 .924-.41.924-.912v-4.161a.919.919 0 0 0-.924-.912h-4.213zM67.95 43h-4.213c-1.447 0-2.625-1.163-2.625-2.592v-4.161c0-1.43 1.178-2.592 2.625-2.592h4.213c1.448 0 2.626 1.162 2.626 2.592v4.16c0 1.43-1.178 2.593-2.626 2.593zm12.26-3.606a.16.16 0 0 0-.16.159v1.608a.16.16 0 0 0 .16.159h1.63a.16.16 0 0 0 .16-.159v-1.608a.16.16 0 0 0-.16-.159h-1.63zM81.84 43h-1.63c-1.026 0-1.861-.825-1.861-1.839v-1.608c0-1.014.835-1.838 1.862-1.838h1.628c1.027 0 1.862.824 1.862 1.838v1.608c0 1.014-.835 1.839-1.862 1.839zm8.567-3.606a.16.16 0 0 0-.16.159v1.608a.16.16 0 0 0 .16.159h1.63a.16.16 0 0 0 .16-.159v-1.608a.16.16 0 0 0-.16-.159h-1.63zM92.037 43h-1.63c-1.026 0-1.861-.825-1.861-1.839v-1.608c0-1.014.835-1.838 1.861-1.838h1.63c1.026 0 1.861.824 1.861 1.838v1.608c0 1.014-.835 1.839-1.862 1.839z" mask="url(#b)"/>
        </g>
        <g transform="translate(134 56)">
            <mask id="d" fill="#fff">
                <use xlink:href="#c"/>
            </mask>
            <path fill="#FEFEFE" d="M4.204 15.143h10.907c1.113 0 2.226.007 3.34-.003.686-.007 1.417.006 1.445.902.028.91-.691.95-1.388.95-5.606-.006-11.211-.005-16.817-.001-.588 0-1.21.033-1.48-.622-.283-.689.258-1.062.696-1.428 3.419-2.853 6.844-5.699 10.267-8.547l5.272-4.39H11.99c-3.456 0-6.911-.002-10.367.002-.685.001-1.426-.021-1.44-.913C.172.208.89.141 1.59.142 7.195.146 12.8.147 18.406.14c.597-.001 1.148-.005 1.408.7.274.742-.145 1.16-.635 1.566L8.004 11.663c-1.299 1.075-2.594 2.154-3.89 3.232l.09.248" mask="url(#d)"/>
        </g>
        <g transform="translate(0 47)">
            <mask id="f" fill="#fff">
                <use xlink:href="#e"/>
            </mask>
            <path fill="#FEFEFE" d="M12.402.023c3.668 0 7.337.01 11.006-.007.732-.004 1.449.07 1.478.927.03.912-.728 1.096-1.488 1.1-2.92.01-5.84.046-8.757-.018-1.001-.022-1.331.183-1.322 1.248.056 6.992.029 13.984.028 20.976 0 .309.028.623-.02.925-.085.523-.413.826-.974.802-.5-.02-.8-.312-.877-.78-.049-.303-.022-.617-.022-.926 0-7.031-.018-14.062.021-21.092.005-.912-.243-1.17-1.175-1.152-2.918.059-5.838.027-8.757.017-.541-.003-1.157.05-1.419-.577C-.24.593.211.03 1.277.027 4.985.017 8.694.023 12.402.023" mask="url(#f)"/>
        </g>
        <path fill="#FEFEFE" d="M96.521 73c-1.464 0-1.636-.22-2.126-1.09-2.671-4.748-5.392-9.47-8.11-14.193-.358-.622-.482-1.216.251-1.583.71-.356 1.164.06 1.518.68a3377.11 3377.11 0 0 0 7.67 13.37c.2.348.26.908.815.882.517-.025.618-.552.822-.91 2.428-4.26 4.847-8.525 7.268-12.79.115-.202.232-.405.353-.605.36-.6.87-.994 1.562-.607.67.373.486.986.183 1.53-1.06 1.903-2.129 3.803-3.201 5.7-1.57 2.778-3.177 5.537-4.704 8.337-.529.97-.549 1.279-2.3 1.279M43.005 66.037c0-1.707-.013-3.415.003-5.122a4.934 4.934 0 0 1 4.897-4.897c3.084-.023 6.168-.026 9.25.002 2.538.024 4.793 2.211 4.844 4.607.014.648-.11 1.226-.836 1.307-.719.081-.957-.407-1.076-1.079-.357-2.01-1.497-2.956-3.54-2.973a500.163 500.163 0 0 0-8.079 0c-2.311.017-3.576 1.312-3.585 3.65a1831.68 1831.68 0 0 0 0 10.01c.001.684.027 1.433-.9 1.457-1.019.027-.984-.769-.981-1.492.007-1.823.002-3.647.003-5.47"/>
        <g transform="translate(20 56)">
            <mask id="h" fill="#fff">
                <use xlink:href="#g"/>
            </mask>
            <path fill="#FEFEFE" d="M2 7.18c-.194-3.725.802-5.408 5.21-5.21 2.588.115 5.187.016 7.78.021 2.748.006 4.037 1.24 4.052 3.865.012 2.133.012 2.133-2.256 2.133H10.56c-2.554 0-5.108-.018-7.662.013-.655.008-.864-.15-.899-.821m1.01 2.638c2.714.042 5.43.017 8.144.016 2.795 0 5.59-.022 8.384.012 1.012.013 1.475-.335 1.434-1.342-.047-1.151.003-2.305-.016-3.458-.042-2.7-2.309-4.88-5.125-4.896A980.235 980.235 0 0 0 5.29.149C2.384.163.13 2.318.107 5.097c-.02 2.267-.016 4.534-.001 6.8.019 2.915 2.27 5.079 5.296 5.088 3.553.012 7.106.003 10.66.003 1.078 0 2.157.034 3.233-.013.867-.037 1.308-.822.858-1.434-.326-.445-.822-.4-1.302-.4-4.113.002-8.225.002-12.337.001-3.37 0-4.528-1.155-4.515-4.373.004-.768.24-.962 1.01-.95" mask="url(#h)"/>
        </g>
        <path fill="#FEFEFE" d="M81.164 65.688c-.05.693.009 1.393-.016 2.089-.074 2.018-1.338 3.32-3.348 3.342-3.21.037-6.42.037-9.63 0-1.896-.022-3.33-1.425-3.32-3.13.009-1.703 1.444-3.091 3.333-3.13 2.063-.042 4.128-.01 6.191-.01 1.987-.001 3.975.024 5.962-.016.66-.014.875.2.828.855m1.824-4.585c-.02-2.943-2.166-5.084-5.1-5.097-2.142-.01-4.285-.002-6.427-.002-2.334 0-4.668.007-7.001-.004-.676-.003-1.281.1-1.266.951.015.852.641.938 1.303.916.23-.008.46-.001.689-.001h11.937c2.84.002 4.026 1.242 4.05 4.1.006.8-.185 1.048-1.005 1.04a769.357 769.357 0 0 0-12.281-.014c-2.77.015-4.897 2.24-4.887 5.054.01 2.734 2.153 4.926 4.874 4.94 3.405.019 6.81.018 10.215.001 2.741-.013 4.876-2.156 4.898-4.91.018-2.325.016-4.65 0-6.974M130.08 67.635c-.027 2.159-1.37 3.473-3.549 3.493-2.01.018-4.02.003-6.029.003-2.01 0-4.02.014-6.029-.003-2.185-.02-3.529-1.328-3.556-3.484-.026-2.09-.026-4.181 0-6.271.026-2.157 1.369-3.483 3.548-3.492 4.019-.018 8.038-.017 12.058 0 2.182.009 3.53 1.33 3.557 3.483.027 2.09.027 4.181 0 6.271m1.89-6.516c-.048-2.878-2.267-5.068-5.193-5.093a770.375 770.375 0 0 0-12.533 0c-2.934.022-5.166 2.203-5.216 5.068a213.862 213.862 0 0 0-.003 6.737c.042 2.95 2.252 5.114 5.253 5.154 2.089.028 4.178.006 6.267.005 2.088 0 4.178.028 6.266-.008 2.863-.047 5.097-2.21 5.155-5.01.047-2.284.042-4.57.004-6.853"/>
        <path d="M-4-3h161v80H-4z"/>
    </g>
</svg>
